<mxfile host="app.diagrams.net" modified="2024-04-06T20:04:21.358Z" agent="Mozilla/5.0 (Windows NT 10.0; Win64; x64) AppleWebKit/537.36 (KHTML, like Gecko) Chrome/123.0.0.0 Safari/537.36 Edg/123.0.0.0" etag="p_hBEQtvpN3w6TzEegMY" version="24.0.5" type="device" pages="5">
  <diagram name="Recommender System Type Base" id="BjOo3D7wuWnxj2ij96eM">
    <mxGraphModel dx="832" dy="481" grid="1" gridSize="10" guides="1" tooltips="1" connect="1" arrows="1" fold="1" page="1" pageScale="1" pageWidth="827" pageHeight="1169" math="0" shadow="0">
      <root>
        <mxCell id="0" />
        <mxCell id="1" parent="0" />
        <mxCell id="lSNb8hq1_Q2s-0mGB0Vf-1" value="Recommender System" style="text;html=1;align=center;verticalAlign=middle;whiteSpace=wrap;rounded=0;fontStyle=1;fontSize=24;" vertex="1" parent="1">
          <mxGeometry x="280" y="80" width="200" height="80" as="geometry" />
        </mxCell>
        <mxCell id="lSNb8hq1_Q2s-0mGB0Vf-2" value="&lt;font style=&quot;font-size: 18px;&quot;&gt;&lt;b&gt;Content Based Method&lt;/b&gt;&lt;/font&gt;" style="rounded=1;whiteSpace=wrap;html=1;fillColor=#e51400;fontColor=#ffffff;strokeColor=#B20000;" vertex="1" parent="1">
          <mxGeometry x="10" y="280" width="190" height="90" as="geometry" />
        </mxCell>
        <mxCell id="lSNb8hq1_Q2s-0mGB0Vf-3" value="Collaborative Filtering Methods" style="rounded=1;whiteSpace=wrap;html=1;fontStyle=1;fontSize=18;fillColor=#1ba1e2;fontColor=#ffffff;strokeColor=#006EAF;" vertex="1" parent="1">
          <mxGeometry x="280" y="280" width="190" height="90" as="geometry" />
        </mxCell>
        <mxCell id="lSNb8hq1_Q2s-0mGB0Vf-4" value="Hybrid Methods" style="rounded=1;whiteSpace=wrap;html=1;fontSize=18;fontStyle=1;strokeColor=#2D7600;fillColor=#60a917;fontColor=#ffffff;" vertex="1" parent="1">
          <mxGeometry x="560" y="280" width="190" height="90" as="geometry" />
        </mxCell>
        <mxCell id="lSNb8hq1_Q2s-0mGB0Vf-5" value="" style="endArrow=classic;html=1;rounded=0;exitX=0.5;exitY=1;exitDx=0;exitDy=0;entryX=0.5;entryY=0;entryDx=0;entryDy=0;fontStyle=1;strokeWidth=3;" edge="1" parent="1" source="lSNb8hq1_Q2s-0mGB0Vf-1" target="lSNb8hq1_Q2s-0mGB0Vf-2">
          <mxGeometry width="50" height="50" relative="1" as="geometry">
            <mxPoint x="390" y="310" as="sourcePoint" />
            <mxPoint x="440" y="260" as="targetPoint" />
          </mxGeometry>
        </mxCell>
        <mxCell id="lSNb8hq1_Q2s-0mGB0Vf-6" value="" style="endArrow=classic;html=1;rounded=0;entryX=0.5;entryY=0;entryDx=0;entryDy=0;fontStyle=1;strokeWidth=3;" edge="1" parent="1" target="lSNb8hq1_Q2s-0mGB0Vf-3">
          <mxGeometry width="50" height="50" relative="1" as="geometry">
            <mxPoint x="380" y="160" as="sourcePoint" />
            <mxPoint x="115" y="290" as="targetPoint" />
          </mxGeometry>
        </mxCell>
        <mxCell id="lSNb8hq1_Q2s-0mGB0Vf-7" value="" style="endArrow=classic;html=1;rounded=0;entryX=0.5;entryY=0;entryDx=0;entryDy=0;fontStyle=1;strokeWidth=3;exitX=0.5;exitY=1;exitDx=0;exitDy=0;" edge="1" parent="1" source="lSNb8hq1_Q2s-0mGB0Vf-1" target="lSNb8hq1_Q2s-0mGB0Vf-4">
          <mxGeometry width="50" height="50" relative="1" as="geometry">
            <mxPoint x="390" y="170" as="sourcePoint" />
            <mxPoint x="385" y="290" as="targetPoint" />
          </mxGeometry>
        </mxCell>
      </root>
    </mxGraphModel>
  </diagram>
  <diagram name="Recommender System Type Base Extended" id="STiEfBkbRwGfgvOT3K7z">
    <mxGraphModel dx="832" dy="481" grid="1" gridSize="10" guides="1" tooltips="1" connect="1" arrows="1" fold="1" page="1" pageScale="1" pageWidth="827" pageHeight="1169" math="0" shadow="0">
      <root>
        <mxCell id="ML-ktMMby7COp1WnKw2c-0" />
        <mxCell id="ML-ktMMby7COp1WnKw2c-1" parent="ML-ktMMby7COp1WnKw2c-0" />
        <mxCell id="ML-ktMMby7COp1WnKw2c-2" value="Recommender System" style="text;html=1;align=center;verticalAlign=middle;whiteSpace=wrap;rounded=0;fontStyle=1;fontSize=24;" vertex="1" parent="ML-ktMMby7COp1WnKw2c-1">
          <mxGeometry x="280" y="80" width="200" height="80" as="geometry" />
        </mxCell>
        <mxCell id="ML-ktMMby7COp1WnKw2c-3" value="&lt;font style=&quot;font-size: 18px;&quot;&gt;&lt;b&gt;Content Based Method&lt;/b&gt;&lt;/font&gt;" style="rounded=1;whiteSpace=wrap;html=1;fillColor=#e51400;fontColor=#ffffff;strokeColor=#B20000;" vertex="1" parent="ML-ktMMby7COp1WnKw2c-1">
          <mxGeometry x="10" y="280" width="190" height="90" as="geometry" />
        </mxCell>
        <mxCell id="ML-ktMMby7COp1WnKw2c-4" value="Collaborative Filtering Methods" style="rounded=1;whiteSpace=wrap;html=1;fontStyle=1;fontSize=18;fillColor=#1997D4;fontColor=#ffffff;strokeColor=#006EAF;" vertex="1" parent="ML-ktMMby7COp1WnKw2c-1">
          <mxGeometry x="280" y="280" width="190" height="90" as="geometry" />
        </mxCell>
        <mxCell id="ML-ktMMby7COp1WnKw2c-5" value="Hybrid Methods" style="rounded=1;whiteSpace=wrap;html=1;fontSize=18;fontStyle=1;strokeColor=#2D7600;fillColor=#60a917;fontColor=#ffffff;" vertex="1" parent="ML-ktMMby7COp1WnKw2c-1">
          <mxGeometry x="560" y="280" width="190" height="90" as="geometry" />
        </mxCell>
        <mxCell id="ML-ktMMby7COp1WnKw2c-6" value="" style="endArrow=classic;html=1;rounded=0;exitX=0.5;exitY=1;exitDx=0;exitDy=0;entryX=0.5;entryY=0;entryDx=0;entryDy=0;fontStyle=1;strokeWidth=3;" edge="1" parent="ML-ktMMby7COp1WnKw2c-1" source="ML-ktMMby7COp1WnKw2c-2" target="ML-ktMMby7COp1WnKw2c-3">
          <mxGeometry width="50" height="50" relative="1" as="geometry">
            <mxPoint x="390" y="310" as="sourcePoint" />
            <mxPoint x="440" y="260" as="targetPoint" />
          </mxGeometry>
        </mxCell>
        <mxCell id="ML-ktMMby7COp1WnKw2c-7" value="" style="endArrow=classic;html=1;rounded=0;entryX=0.5;entryY=0;entryDx=0;entryDy=0;fontStyle=1;strokeWidth=3;" edge="1" parent="ML-ktMMby7COp1WnKw2c-1" target="ML-ktMMby7COp1WnKw2c-4">
          <mxGeometry width="50" height="50" relative="1" as="geometry">
            <mxPoint x="380" y="160" as="sourcePoint" />
            <mxPoint x="115" y="290" as="targetPoint" />
          </mxGeometry>
        </mxCell>
        <mxCell id="ML-ktMMby7COp1WnKw2c-8" value="" style="endArrow=classic;html=1;rounded=0;entryX=0.5;entryY=0;entryDx=0;entryDy=0;fontStyle=1;strokeWidth=3;exitX=0.5;exitY=1;exitDx=0;exitDy=0;" edge="1" parent="ML-ktMMby7COp1WnKw2c-1" source="ML-ktMMby7COp1WnKw2c-2" target="ML-ktMMby7COp1WnKw2c-5">
          <mxGeometry width="50" height="50" relative="1" as="geometry">
            <mxPoint x="390" y="170" as="sourcePoint" />
            <mxPoint x="385" y="290" as="targetPoint" />
          </mxGeometry>
        </mxCell>
        <mxCell id="5JaoP1Z4PShylcp6JhJ9-0" value="Model Based" style="rounded=1;whiteSpace=wrap;html=1;fontStyle=1;fontSize=18;fillColor=#1EB6FF;fontColor=#ffffff;strokeColor=#006EAF;" vertex="1" parent="ML-ktMMby7COp1WnKw2c-1">
          <mxGeometry x="100" y="510" width="190" height="90" as="geometry" />
        </mxCell>
        <mxCell id="5JaoP1Z4PShylcp6JhJ9-1" value="Memory Based" style="rounded=1;whiteSpace=wrap;html=1;fontStyle=1;fontSize=18;fillColor=#116994;fontColor=#ffffff;strokeColor=#006EAF;" vertex="1" parent="ML-ktMMby7COp1WnKw2c-1">
          <mxGeometry x="470" y="510" width="190" height="90" as="geometry" />
        </mxCell>
        <mxCell id="5JaoP1Z4PShylcp6JhJ9-2" value="" style="endArrow=classic;html=1;rounded=0;entryX=0.5;entryY=0;entryDx=0;entryDy=0;fontStyle=1;strokeWidth=3;exitX=0.5;exitY=1;exitDx=0;exitDy=0;" edge="1" parent="ML-ktMMby7COp1WnKw2c-1" source="ML-ktMMby7COp1WnKw2c-4" target="5JaoP1Z4PShylcp6JhJ9-0">
          <mxGeometry width="50" height="50" relative="1" as="geometry">
            <mxPoint x="375" y="420" as="sourcePoint" />
            <mxPoint x="370" y="540" as="targetPoint" />
          </mxGeometry>
        </mxCell>
        <mxCell id="5JaoP1Z4PShylcp6JhJ9-3" value="" style="endArrow=classic;html=1;rounded=0;entryX=0.5;entryY=0;entryDx=0;entryDy=0;fontStyle=1;strokeWidth=3;exitX=0.5;exitY=1;exitDx=0;exitDy=0;" edge="1" parent="ML-ktMMby7COp1WnKw2c-1" source="ML-ktMMby7COp1WnKw2c-4" target="5JaoP1Z4PShylcp6JhJ9-1">
          <mxGeometry width="50" height="50" relative="1" as="geometry">
            <mxPoint x="385" y="380" as="sourcePoint" />
            <mxPoint x="205" y="520" as="targetPoint" />
          </mxGeometry>
        </mxCell>
      </root>
    </mxGraphModel>
  </diagram>
  <diagram id="6LaNuwClFSSBLhjue-qS" name="TF - Term Frequency">
    <mxGraphModel dx="832" dy="481" grid="1" gridSize="10" guides="1" tooltips="1" connect="1" arrows="1" fold="1" page="1" pageScale="1" pageWidth="827" pageHeight="1169" math="0" shadow="0">
      <root>
        <mxCell id="0" />
        <mxCell id="1" parent="0" />
        <mxCell id="0JTsaxZDA9OSbGTctiDr-1" value="TF =" style="text;html=1;align=center;verticalAlign=middle;whiteSpace=wrap;rounded=0;fontStyle=1;fontSize=36;" vertex="1" parent="1">
          <mxGeometry x="80" y="160" width="80" height="80" as="geometry" />
        </mxCell>
        <mxCell id="0JTsaxZDA9OSbGTctiDr-2" value="Numero di occorrenze di un termine all&#39;interno di un documento" style="text;html=1;align=center;verticalAlign=middle;whiteSpace=wrap;rounded=0;fontSize=18;" vertex="1" parent="1">
          <mxGeometry x="160" y="160" width="600" height="30" as="geometry" />
        </mxCell>
        <mxCell id="0JTsaxZDA9OSbGTctiDr-3" value="Numero totale dei termini presenti nel documento" style="text;html=1;align=center;verticalAlign=middle;whiteSpace=wrap;rounded=0;fontSize=18;" vertex="1" parent="1">
          <mxGeometry x="160" y="210" width="590" height="30" as="geometry" />
        </mxCell>
        <mxCell id="0JTsaxZDA9OSbGTctiDr-4" value="" style="endArrow=none;html=1;rounded=0;fontStyle=0;strokeWidth=3;endSize=6;" edge="1" parent="1">
          <mxGeometry width="50" height="50" relative="1" as="geometry">
            <mxPoint x="170" y="199.5" as="sourcePoint" />
            <mxPoint x="740" y="199.5" as="targetPoint" />
          </mxGeometry>
        </mxCell>
      </root>
    </mxGraphModel>
  </diagram>
  <diagram name="IDF - Inverse Document Frequency" id="tMvmWgXFHzHSgsOApcW2">
    <mxGraphModel dx="832" dy="481" grid="1" gridSize="10" guides="1" tooltips="1" connect="1" arrows="1" fold="1" page="1" pageScale="1" pageWidth="827" pageHeight="1169" math="0" shadow="0">
      <root>
        <mxCell id="UW9J11C6T4A51L3mMoc5-0" />
        <mxCell id="UW9J11C6T4A51L3mMoc5-1" parent="UW9J11C6T4A51L3mMoc5-0" />
        <mxCell id="UW9J11C6T4A51L3mMoc5-2" value="IDF =" style="text;html=1;align=center;verticalAlign=middle;whiteSpace=wrap;rounded=0;fontStyle=1;fontSize=36;" vertex="1" parent="UW9J11C6T4A51L3mMoc5-1">
          <mxGeometry y="160" width="100" height="80" as="geometry" />
        </mxCell>
        <mxCell id="UW9J11C6T4A51L3mMoc5-3" value="Numero totale dei documenti" style="text;html=1;align=center;verticalAlign=middle;whiteSpace=wrap;rounded=0;fontSize=18;" vertex="1" parent="UW9J11C6T4A51L3mMoc5-1">
          <mxGeometry x="160" y="160" width="600" height="30" as="geometry" />
        </mxCell>
        <mxCell id="UW9J11C6T4A51L3mMoc5-4" value="Numero dei documenti nel quale compare il termine analizzato" style="text;html=1;align=center;verticalAlign=middle;whiteSpace=wrap;rounded=0;fontSize=18;" vertex="1" parent="UW9J11C6T4A51L3mMoc5-1">
          <mxGeometry x="160" y="210" width="590" height="30" as="geometry" />
        </mxCell>
        <mxCell id="UW9J11C6T4A51L3mMoc5-5" value="" style="endArrow=none;html=1;rounded=0;fontStyle=0;strokeWidth=3;endSize=6;" edge="1" parent="UW9J11C6T4A51L3mMoc5-1">
          <mxGeometry width="50" height="50" relative="1" as="geometry">
            <mxPoint x="170" y="199.5" as="sourcePoint" />
            <mxPoint x="740" y="199.5" as="targetPoint" />
          </mxGeometry>
        </mxCell>
        <mxCell id="nfHaYRQ23nqg34_F-AHo-0" value="log (" style="text;html=1;align=center;verticalAlign=middle;whiteSpace=wrap;rounded=0;fontSize=28;" vertex="1" parent="UW9J11C6T4A51L3mMoc5-1">
          <mxGeometry x="100" y="160" width="70" height="80" as="geometry" />
        </mxCell>
        <mxCell id="nfHaYRQ23nqg34_F-AHo-1" value=")" style="text;html=1;align=center;verticalAlign=middle;whiteSpace=wrap;rounded=0;fontSize=28;" vertex="1" parent="UW9J11C6T4A51L3mMoc5-1">
          <mxGeometry x="750" y="160" width="20" height="80" as="geometry" />
        </mxCell>
      </root>
    </mxGraphModel>
  </diagram>
  <diagram name="TF-IDF" id="ywP-3LSAJVftzADJtdEN">
    <mxGraphModel dx="832" dy="481" grid="1" gridSize="10" guides="1" tooltips="1" connect="1" arrows="1" fold="1" page="1" pageScale="1" pageWidth="827" pageHeight="1169" math="0" shadow="0">
      <root>
        <mxCell id="JP5uvd9WJg4-QOr5_FhK-0" />
        <mxCell id="JP5uvd9WJg4-QOr5_FhK-1" parent="JP5uvd9WJg4-QOr5_FhK-0" />
        <mxCell id="JP5uvd9WJg4-QOr5_FhK-2" value="TF-IDF =" style="text;html=1;align=center;verticalAlign=middle;whiteSpace=wrap;rounded=0;fontStyle=1;fontSize=36;" vertex="1" parent="JP5uvd9WJg4-QOr5_FhK-1">
          <mxGeometry x="80" y="160" width="200" height="80" as="geometry" />
        </mxCell>
        <mxCell id="JP5uvd9WJg4-QOr5_FhK-3" value="TF" style="text;html=1;align=center;verticalAlign=middle;whiteSpace=wrap;rounded=0;fontSize=30;" vertex="1" parent="JP5uvd9WJg4-QOr5_FhK-1">
          <mxGeometry x="320" y="160" width="50" height="80" as="geometry" />
        </mxCell>
        <mxCell id="_59mxk9FAJLrDg1KaBxS-0" value="*" style="text;html=1;align=center;verticalAlign=middle;whiteSpace=wrap;rounded=0;fontSize=28;" vertex="1" parent="JP5uvd9WJg4-QOr5_FhK-1">
          <mxGeometry x="388" y="185" width="26" height="30" as="geometry" />
        </mxCell>
        <mxCell id="_59mxk9FAJLrDg1KaBxS-1" value="IDF" style="text;html=1;align=center;verticalAlign=middle;whiteSpace=wrap;rounded=0;fontSize=30;" vertex="1" parent="JP5uvd9WJg4-QOr5_FhK-1">
          <mxGeometry x="430" y="160" width="60" height="80" as="geometry" />
        </mxCell>
      </root>
    </mxGraphModel>
  </diagram>
</mxfile>
